{"title":"Unfriended.2015.CAM.XVID.AC3.MRG","uid":12001178,"size":799551325,"categoryP":"video","categoryS":"movies","magnet":"?xt=urn:btih:616505dcaf2cb3b420f10e803951ab1777fc39c5&amp;dn=Unfriended.2015.CAM.XVID.AC3.MRG&amp;tr=udp%3A%2F%2Ftracker.openbittorrent.com%3A80&amp;tr=udp%3A%2F%2Fopen.demonii.com%3A1337&amp;tr=udp%3A%2F%2Ftracker.coppersurfer.tk%3A6969&amp;tr=udp%3A%2F%2Fexodus.desync.com%3A6969","seeders":24,"leechers":8,"uploader":"makintos13","files":8,"time":1433782844,"description":"Screens:\n &lt;a href=&quot;\nhttp://imgmak.com/3Y&quot; rel=&quot;nofollow&quot; target=&quot;_NEW&quot;&gt;\nhttp://imgmak.com/3Y&lt;/a&gt;\n &lt;a href=&quot;\nhttp://imgmak.com/30&quot; rel=&quot;nofollow&quot; target=&quot;_NEW&quot;&gt;\nhttp://imgmak.com/30&lt;/a&gt;\n &lt;a href=&quot;\nhttp://imgmak.com/3A&quot; rel=&quot;nofollow&quot; target=&quot;_NEW&quot;&gt;\nhttp://imgmak.com/3A&lt;/a&gt;\n &lt;a href=&quot;\nhttp://imgmak.com/3D&quot; rel=&quot;nofollow&quot; target=&quot;_NEW&quot;&gt;\nhttp://imgmak.com/3D&lt;/a&gt;\n\n::::::::::::::::::::::::::\n\n\nUnfriended.2015.CAM.XVID.AC3.MRG\nSOURCE : RSG...TY\nFormat : AVI\nFormat/Info : Audio Video Interleave\nFile size : 762 MiB\nDuration : 1h 16mn\nOverall bit rate : 1 389 Kbps\n\nVideo\nID : 0\nFormat : MPEG-4 Visual\nFormat profile : Advanced Simple@L5\nFormat settings, BVOP : 1\nFormat settings, QPel : No\nFormat settings, GMC : No warppoints\nFormat settings, Matrix : Default (H.263)\nCodec ID : XVID\nCodec ID/Hint : XviD\nDuration : 1h 16mn\nBit rate : 1 186 Kbps\nWidth : 720 pixels\nHeight : 304 pixels\nDisplay aspect ratio : 2.35:1\nFrame rate : 29.970 fps\nColor space : YUV\nChroma subsampling : 4:2:0\nBit depth : 8 bits\nScan type : Progressive\nCompression mode : Lossy\nBits/(Pixel*Frame) : 0.181\nStream size : 650 MiB (85%)\nWriting library : XviD\n\nAudio\nID : 1\nFormat : AC-3\nFormat/Info : Audio Coding 3\nMode extension : CM (complete main)\nFormat settings, Endianness : Big\nCodec ID : 2000\nDuration : 1h 16mn\nBit rate mode : Constant\nBit rate : 192 Kbps\nChannel(s) : 2 channels\nChannel positions : Front: L R\nSampling rate : 44.1 KHz\nCompression mode : Lossy\nStream size : 105 MiB (14%)\nAlignment : Aligned on interleaves\nInterleave, duration : 35 ms (1.04 video frame)","torrent":{"xt":"urn:btih:616505dcaf2cb3b420f10e803951ab1777fc39c5","amp;dn":"Unfriended.2015.CAM.XVID.AC3.MRG","amp;tr":["udp%3A%2F%2Ftracker.openbittorrent.com%3A80","udp%3A%2F%2Fopen.demonii.com%3A1337","udp%3A%2F%2Ftracker.coppersurfer.tk%3A6969","udp%3A%2F%2Fexodus.desync.com%3A6969"],"infoHash":"616505dcaf2cb3b420f10e803951ab1777fc39c5","infoHashBuffer":{"type":"Buffer","data":[97,101,5,220,175,44,179,180,32,241,14,128,57,81,171,23,119,252,57,197]},"announce":[],"urlList":[]}}